<svg xmlns="http://www.w3.org/2000/svg" viewBox="0 0 500 500"><g id="freepik--Floor--inject-141"><path d="M74.2,383.85S69.5,368.12,79,365s15.14-10.49,14.82-18.81,9.68-16.42,17.18-8.62,6.5-6,16.5-9.35S146,333,143.24,340.42s7.13,12.07,18.94,5.75,24.82,5.18,22.32,14.18-.45,10,7,7,20.85,5.5,16.17,16.5S74.2,383.85,74.2,383.85Z" style="fill:#02062D"></path><path d="M74.2,383.85S69.5,368.12,79,365s15.14-10.49,14.82-18.81,9.68-16.42,17.18-8.62,6.5-6,16.5-9.35S146,333,143.24,340.42s7.13,12.07,18.94,5.75,24.82,5.18,22.32,14.18-.45,10,7,7,20.85,5.5,16.17,16.5S74.2,383.85,74.2,383.85Z" style="fill:#fff;opacity:0.30000000000000004;isolation:isolate"></path><path d="M325.5,385.35c-5-5-.5-13.5,4.5-14.5s10-9.8,10.26-15.4,9.24-22.83,23.24-12.19,9.74,1.57,19.87-1.42,16.52,5.61,12.07,12.06c0,0,10.18-2.55,14.37,7s0,15.4,0,15.4,19.13-.57,17.41,11.27S325.5,385.35,325.5,385.35Z" style="fill:#02062D"></path><path d="M325.5,385.35c-5-5-.5-13.5,4.5-14.5s10-9.8,10.26-15.4,9.24-22.83,23.24-12.19,9.74,1.57,19.87-1.42,16.52,5.61,12.07,12.06c0,0,10.18-2.55,14.37,7s0,15.4,0,15.4,19.13-.57,17.41,11.27S325.5,385.35,325.5,385.35Z" style="fill:#fff;opacity:0.30000000000000004;isolation:isolate"></path><path d="M57,385.65v13.7H443v-13.7a4.08,4.08,0,0,0-4-4.3H61A4.08,4.08,0,0,0,57,385.65Z" style="fill:#263238"></path><rect x="397" y="381.35" width="24" height="18" style="fill:#02062D"></rect><rect x="352" y="381.35" width="23" height="18" style="fill:#02062D"></rect><rect x="306" y="381.35" width="24" height="18" style="fill:#02062D"></rect><rect x="261" y="381.35" width="23" height="18" style="fill:#02062D"></rect><rect x="216" y="381.35" width="23" height="18" style="fill:#02062D"></rect><rect x="170" y="381.35" width="24" height="18" style="fill:#02062D"></rect><rect x="125" y="381.35" width="23" height="18" style="fill:#02062D"></rect><rect x="79" y="381.35" width="24" height="18" style="fill:#02062D"></rect><g style="opacity:0.6000000000000001;isolation:isolate"><rect x="397" y="381.35" width="24" height="18" style="fill:#fff"></rect><rect x="352" y="381.35" width="23" height="18" style="fill:#fff"></rect><rect x="306" y="381.35" width="24" height="18" style="fill:#fff"></rect><rect x="261" y="381.35" width="23" height="18" style="fill:#fff"></rect><rect x="216" y="381.35" width="23" height="18" style="fill:#fff"></rect><rect x="170" y="381.35" width="24" height="18" style="fill:#fff"></rect><rect x="125" y="381.35" width="23" height="18" style="fill:#fff"></rect><rect x="79" y="381.35" width="24" height="18" style="fill:#fff"></rect></g><path d="M57,385.65v13.7H443v-13.7a4.08,4.08,0,0,0-4-4.3H61A4.08,4.08,0,0,0,57,385.65Z" style="fill:#fff;opacity:0.1;isolation:isolate"></path></g><g id="freepik--Screen--inject-141"><path d="M251.9,115V411.51a4.33,4.33,0,0,1-4.39,4.34h-138a3.84,3.84,0,0,1-2.76-1.11,4,4,0,0,1-1.17-2.87V114.68a3.5,3.5,0,0,1,3.37-3.63h39.18a2.76,2.76,0,0,1,2.52,1.76l1.63,4a2.75,2.75,0,0,0,2.52,1.75h48a2.73,2.73,0,0,0,2.52-1.71l1.63-4a2.76,2.76,0,0,1,2.52-1.77h38.62A4,4,0,0,1,251.9,115Z" style="fill:#02062D"></path><rect x="105.6" y="130.37" width="146.3" height="272.35" style="fill:#fff;opacity:0.30000000000000004;isolation:isolate"></rect><rect x="109.71" y="162.55" width="138.08" height="125.91" style="fill:#fff;opacity:0.5;isolation:isolate"></rect><path d="M240.12,153.24H117.38a7.09,7.09,0,0,1-7.09-7.08h0a7.09,7.09,0,0,1,7.09-7.09H240.12a7.09,7.09,0,0,1,7.09,7.09h0A7.09,7.09,0,0,1,240.12,153.24Z" style="fill:#fff"></path><rect x="109.71" y="295.26" width="138.08" height="100.1" rx="5.72" style="fill:#fff;opacity:0.5;isolation:isolate"></rect><path d="M247.79,301v9.81H109.71V301a5.72,5.72,0,0,1,5.72-5.72H242.07A5.72,5.72,0,0,1,247.79,301Z" style="fill:#02062D"></path><rect x="117.17" y="342.34" width="36.92" height="45.63" rx="3.03" style="fill:#02062D"></rect><rect x="160.29" y="342.34" width="36.92" height="45.63" rx="3.03" style="fill:#02062D"></rect><rect x="203.41" y="342.34" width="36.92" height="45.63" rx="3.03" style="fill:#02062D"></rect><g style="opacity:0.7000000000000001"><polygon points="144.29 381.91 126.97 381.91 128.97 368.86 128.97 365.5 142.29 365.5 142.29 368.86 144.29 381.91" style="fill:#fff"></polygon><path d="M138.43,364.61a.5.5,0,0,1-.5-.5v-2.36a2.58,2.58,0,0,0-5.16,0v2.36a.5.5,0,0,1-.5.5.5.5,0,0,1-.5-.5v-2.36a3.58,3.58,0,0,1,7.16,0v2.36A.5.5,0,0,1,138.43,364.61Z" style="fill:#fff"></path></g><g style="opacity:0.7000000000000001"><polygon points="123.04 345.31 123.76 346.76 125.36 346.99 124.2 348.12 124.47 349.71 123.04 348.96 121.61 349.71 121.89 348.12 120.73 346.99 122.33 346.76 123.04 345.31" style="fill:#fff"></polygon><polygon points="129.34 345.31 130.05 346.76 131.65 346.99 130.49 348.12 130.77 349.71 129.34 348.96 127.91 349.71 128.18 348.12 127.02 346.99 128.62 346.76 129.34 345.31" style="fill:#fff"></polygon><polygon points="135.63 345.31 136.34 346.76 137.94 346.99 136.79 348.12 137.06 349.71 135.63 348.96 134.2 349.71 134.47 348.12 133.32 346.99 134.91 346.76 135.63 345.31" style="fill:#fff"></polygon><polygon points="141.92 345.31 142.64 346.76 144.24 346.99 143.08 348.12 143.35 349.71 141.92 348.96 140.49 349.71 140.77 348.12 139.61 346.99 141.21 346.76 141.92 345.31" style="opacity:0.5"></polygon><polygon points="148.22 345.31 148.93 346.76 150.53 346.99 149.37 348.12 149.65 349.71 148.22 348.96 146.79 349.71 147.06 348.12 145.9 346.99 147.5 346.76 148.22 345.31" style="opacity:0.5"></polygon></g><g style="opacity:0.7000000000000001"><polygon points="209.28 345.99 210 347.44 211.6 347.68 210.44 348.8 210.72 350.39 209.28 349.64 207.85 350.39 208.13 348.8 206.97 347.68 208.57 347.44 209.28 345.99" style="fill:#fff"></polygon><polygon points="215.58 345.99 216.29 347.44 217.89 347.68 216.74 348.8 217.01 350.39 215.58 349.64 214.15 350.39 214.42 348.8 213.26 347.68 214.86 347.44 215.58 345.99" style="fill:#fff"></polygon><polygon points="221.87 345.99 222.59 347.44 224.19 347.68 223.03 348.8 223.3 350.39 221.87 349.64 220.44 350.39 220.72 348.8 219.56 347.68 221.16 347.44 221.87 345.99" style="fill:#fff"></polygon><polygon points="228.16 345.99 228.88 347.44 230.48 347.68 229.32 348.8 229.59 350.39 228.16 349.64 226.74 350.39 227.01 348.8 225.85 347.68 227.45 347.44 228.16 345.99" style="fill:#fff"></polygon><polygon points="234.46 345.99 235.17 347.44 236.77 347.68 235.62 348.8 235.89 350.39 234.46 349.64 233.03 350.39 233.3 348.8 232.14 347.68 233.74 347.44 234.46 345.99" style="opacity:0.5"></polygon></g><g style="opacity:0.7000000000000001"><polygon points="165.72 345.99 166.44 347.44 168.04 347.68 166.88 348.8 167.15 350.39 165.72 349.64 164.29 350.39 164.57 348.8 163.41 347.68 165.01 347.44 165.72 345.99" style="fill:#fff"></polygon><polygon points="172.02 345.99 172.73 347.44 174.33 347.68 173.17 348.8 173.45 350.39 172.02 349.64 170.59 350.39 170.86 348.8 169.7 347.68 171.3 347.44 172.02 345.99" style="fill:#fff"></polygon><polygon points="178.31 345.99 179.02 347.44 180.62 347.68 179.47 348.8 179.74 350.39 178.31 349.64 176.88 350.39 177.15 348.8 176 347.68 177.59 347.44 178.31 345.99" style="fill:#fff"></polygon><polygon points="184.6 345.99 185.32 347.44 186.92 347.68 185.76 348.8 186.03 350.39 184.6 349.64 183.17 350.39 183.44 348.8 182.29 347.68 183.89 347.44 184.6 345.99" style="fill:#fff"></polygon><polygon points="190.9 345.99 191.61 347.44 193.21 347.68 192.05 348.8 192.32 350.39 190.9 349.64 189.47 350.39 189.74 348.8 188.58 347.68 190.18 347.44 190.9 345.99" style="fill:#fff"></polygon></g><polygon points="187.14 367.87 180.49 367.87 180.49 361.21 176.13 361.21 176.13 367.87 169.47 367.87 169.47 372.22 176.13 372.22 176.13 378.88 180.49 378.88 180.49 372.22 187.14 372.22 187.14 367.87" style="fill:#fff;opacity:0.7000000000000001"></polygon><path d="M215.58,361.14v17.8h11.94v-17.8Zm10.27,8.05h-8.6v-5.81h8.6Z" style="fill:#fff;opacity:0.7000000000000001"></path><path d="M230.84,365.64v-1.58a.35.35,0,0,0-.11-.27l-1-1.05-.53.53.94.94v1.43h-.49V370H230v5.21a1.5,1.5,0,0,1-1.5,1.5v1a2.5,2.5,0,0,0,2.5-2.5V370h.37v-4.4Z" style="fill:#fff;opacity:0.7000000000000001"></path><rect x="117.17" y="319.53" width="123.16" height="15.56" rx="3.3" style="fill:#fff"></rect><path d="M127.08,323.9a3.73,3.73,0,1,0-5.28,5.27l2.64,2.64,2.64-2.64A3.74,3.74,0,0,0,127.08,323.9ZM124.44,328a1.48,1.48,0,1,1,1.47-1.47A1.47,1.47,0,0,1,124.44,328Z" style="fill:#02062D"></path><path d="M233.78,330.62a.5.5,0,0,1-.35-.85l2.46-2.46-2.46-2.46a.5.5,0,0,1,0-.71.51.51,0,0,1,.71,0L237,327a.51.51,0,0,1,0,.71l-2.81,2.81A.51.51,0,0,1,233.78,330.62Z" style="fill:#02062D"></path><rect x="123.79" y="120.27" width="2.04" height="2.72" transform="translate(249.62 243.26) rotate(180)" style="fill:#fff;opacity:0.6000000000000001;isolation:isolate"></rect><rect x="120.47" y="119.37" width="2.04" height="3.62" transform="translate(242.97 242.36) rotate(180)" style="fill:#fff;opacity:0.6000000000000001;isolation:isolate"></rect><rect x="117.14" y="118.46" width="2.04" height="4.53" transform="translate(236.33 241.45) rotate(180)" style="fill:#fff;opacity:0.6000000000000001;isolation:isolate"></rect><rect x="113.82" y="117.55" width="2.04" height="5.44" transform="translate(229.68 240.54) rotate(180)" style="fill:#fff;opacity:0.6000000000000001;isolation:isolate"></rect><rect x="232.01" y="119.28" width="1.21" height="2.72" style="fill:#fff;opacity:0.6000000000000001;isolation:isolate"></rect><rect x="234.05" y="118.29" width="9.63" height="4.7" transform="translate(477.73 241.28) rotate(180)" style="fill:#fff;opacity:0.6000000000000001;isolation:isolate"></rect><g style="opacity:0.5;isolation:isolate"><path d="M247.79,238.36V198.14l-.53.13-9-35.72H220l-24.79,6.26-1.58-6.26H187.8l12,47.69-25.63,6.47L171,204l11.41-2.88a2.12,2.12,0,0,0,1.54-2.58l-8.48-33.62,9.23-2.33H170.47l8.81,34.92-9.34,2.36-9.41-37.28h-9.59l6.34,25.12-9,2.27-34-27.39h-4.61v1.74l18.34,14.79-18.34,19v6.14l21.67-22.5,15.07,12.16a2.11,2.11,0,0,0,1.86.4l10-2.52L165.18,219l-52,13.13-3.46-13.71v24.18l1.61-.41L114,252.8l-4.29,1.08v4.39l5.33-1.34,3.2,12.68-8.53,14.29v4.56h2.23l2-3.43.87,3.43h4.39l-2.17-8.6,5.27-8.83a2.11,2.11,0,0,0,.23-1.61l-7.14-28.28L143,234.19l11.64,46.13-3.85,8.14h4.71l2.89-6.1,21.46-5.42,2.91,11.52h9.59l-7.88-31.22,25.63-6.47,9.52,37.69h5.85l-9.86-39.08,13.64-3.44,10.91,6.51,7.67,30.39V265.42l-3.23-12.8,3.23-.82v-4.39l-5.48,1.39-10.91-6.52-7.22-28.59,16.34-4.12ZM158.4,278l-11.31-44.81L167.46,228l11.31,44.8Zm25-24.85-6.91-27.38,25.63-6.47L209,246.64Zm43.57-11-12.43,3.13-6.91-27.38,12.43-3.14Zm-21.62-33.27-9.07-35.91,32.91-8.31,9.07,35.92Z" style="fill:#fff"></path></g><path d="M239.4,207.09a3.73,3.73,0,0,0-5.28,5.27l2.64,2.64,2.64-2.64A3.74,3.74,0,0,0,239.4,207.09Zm-2.64,4.11a1.48,1.48,0,1,1,1.47-1.48A1.48,1.48,0,0,1,236.76,211.2Z" style="fill:#02062D"></path><path d="M228.68,171.09a3.73,3.73,0,0,0-5.27,5.27L226,179l2.64-2.64A3.72,3.72,0,0,0,228.68,171.09ZM226,175.2a1.48,1.48,0,1,1,1.48-1.48A1.47,1.47,0,0,1,226,175.2Z" style="fill:#02062D"></path><path d="M202.64,220.13a3.73,3.73,0,1,0-5.28,5.27L200,228l2.64-2.64A3.72,3.72,0,0,0,202.64,220.13ZM200,224.24a1.48,1.48,0,1,1,1.47-1.48A1.47,1.47,0,0,1,200,224.24Z" style="fill:#02062D"></path><path d="M177.68,274.55a3.73,3.73,0,0,0-5.28,5.28l2.64,2.63,2.64-2.63A3.75,3.75,0,0,0,177.68,274.55ZM175,278.66a1.48,1.48,0,1,1,1.47-1.47A1.47,1.47,0,0,1,175,278.66Z" style="fill:#02062D"></path><path d="M135,166.58a3.73,3.73,0,0,0-5.28,5.28l2.64,2.64,2.64-2.64A3.75,3.75,0,0,0,135,166.58Zm-2.64,4.11a1.47,1.47,0,1,1,1.47-1.47A1.47,1.47,0,0,1,132.37,170.69Z" style="fill:#02062D"></path><path d="M121.42,236.57a3.73,3.73,0,1,0-5.28,5.27l2.64,2.64,2.64-2.64A3.72,3.72,0,0,0,121.42,236.57Zm-2.64,4.11a1.48,1.48,0,1,1,1.47-1.48A1.47,1.47,0,0,1,118.78,240.68Z" style="fill:#02062D"></path><path d="M176.47,190.23H144.1a3.28,3.28,0,0,0-3.28,3.29v35.95a3.28,3.28,0,0,0,3.28,3.29H158l2.25,6.76,2.25-6.76h13.93a3.29,3.29,0,0,0,3.29-3.29V193.52A3.29,3.29,0,0,0,176.47,190.23Z" style="fill:#02062D"></path><g style="opacity:0.7000000000000001"><polygon points="147.7 194.89 148.42 196.34 150.02 196.57 148.86 197.69 149.13 199.29 147.7 198.54 146.27 199.29 146.55 197.69 145.39 196.57 146.99 196.34 147.7 194.89" style="fill:#fff"></polygon><polygon points="154 194.89 154.71 196.34 156.31 196.57 155.15 197.69 155.43 199.29 154 198.54 152.57 199.29 152.84 197.69 151.68 196.57 153.28 196.34 154 194.89" style="fill:#fff"></polygon><polygon points="160.29 194.89 161 196.34 162.6 196.57 161.45 197.69 161.72 199.29 160.29 198.54 158.86 199.29 159.13 197.69 157.98 196.57 159.57 196.34 160.29 194.89" style="fill:#fff"></polygon><polygon points="166.58 194.89 167.3 196.34 168.9 196.57 167.74 197.69 168.01 199.29 166.58 198.54 165.15 199.29 165.43 197.69 164.27 196.57 165.87 196.34 166.58 194.89" style="fill:#fff"></polygon><polygon points="172.88 194.89 173.59 196.34 175.19 196.57 174.03 197.69 174.31 199.29 172.88 198.54 171.45 199.29 171.72 197.69 170.56 196.57 172.16 196.34 172.88 194.89" style="opacity:0.5"></polygon></g><g style="opacity:0.7000000000000001"><circle cx="160.54" cy="216.6" r="7.87" transform="translate(-87.14 323.08) rotate(-76.72)" style="fill:#fff"></circle><path d="M160.54,222.23a5.63,5.63,0,1,1,5.64-5.63A5.64,5.64,0,0,1,160.54,222.23Zm0-10.85a5.22,5.22,0,1,0,5.22,5.22A5.22,5.22,0,0,0,160.54,211.38Z" style="fill:#02062D"></path><path d="M169.56,206V226.6a.64.64,0,0,0,.64.63h0a.63.63,0,0,0,.63-.63v-7.87h1S172.34,208.84,169.56,206Z" style="fill:#fff"></path><path d="M152.65,210.56l-.07-.43-.15-.86c-.19-1.15-.37-2.3-.6-3.45-.05,1.17-.05,2.33-.05,3.5v.88c0,.27,0,.66,0,.69a.34.34,0,0,1-.25.16h-.39l-.41-5.24-.4,5.24h-.39a.32.32,0,0,1-.25-.16c-.07,0,0-.42,0-.69v-.88c0-1.17,0-2.33-.05-3.5-.23,1.15-.42,2.3-.61,3.45l-.14.86-.07.43a1.26,1.26,0,0,0,0,.61,1.25,1.25,0,0,0,1,.92h.32v14.64a.64.64,0,0,0,.63.64h0a.64.64,0,0,0,.64-.64V212.1h.31a1.25,1.25,0,0,0,1-.92A1.4,1.4,0,0,0,152.65,210.56Z" style="fill:#fff"></path></g><path d="M231.1,281a8.46,8.46,0,1,1,8.46-8.46A8.47,8.47,0,0,1,231.1,281Zm0-15.92a7.46,7.46,0,1,0,7.46,7.46A7.47,7.47,0,0,0,231.1,265Z" style="fill:#02062D"></path><circle cx="231.1" cy="272.5" r="3.98" style="fill:#02062D"></circle><path d="M231.1,265.05a.5.5,0,0,1-.5-.5v-3.1a.5.5,0,0,1,1,0v3.1A.5.5,0,0,1,231.1,265.05Z" style="fill:#02062D"></path><path d="M231.1,284.05a.5.5,0,0,1-.5-.5v-3.1a.5.5,0,0,1,1,0v3.1A.5.5,0,0,1,231.1,284.05Z" style="fill:#02062D"></path><path d="M242.15,273h-3.1a.5.5,0,0,1-.5-.5.51.51,0,0,1,.5-.5h3.1a.5.5,0,0,1,.5.5A.5.5,0,0,1,242.15,273Z" style="fill:#02062D"></path><path d="M223.15,273h-3.1a.5.5,0,0,1-.5-.5.51.51,0,0,1,.5-.5h3.1a.5.5,0,0,1,.5.5A.5.5,0,0,1,223.15,273Z" style="fill:#02062D"></path></g></svg>